<?xml version="1.0" encoding="UTF-8"?>
<svg id="Layer_1" data-name="Layer 1" xmlns="http://www.w3.org/2000/svg" viewBox="0 0 725.89 173.3">
  <defs>
    <style>
      .cls-1 {
        fill: #fff;
      }
    </style>
  </defs>
  <g>
    <path class="cls-1" d="M177.38,120.87v-.19c3.04-4.85,3.8-7.61,3.8-14.08v-41.09c0-6.47-.76-9.23-3.8-14.08v-.19h15.41v.19c-3.14,4.85-3.8,7.51-3.8,14.08v53.93l17.21-.67c7.04-.38,12.65-6.56,17.88-15.22l.76.29-4.28,17.02h-43.18Z"/>
    <path class="cls-1" d="M254.43,122.3c-12.55,0-20.92-9.7-20.92-23.3,0-15.12,10.56-24.82,21.59-24.82s18.07,9.51,17.4,18.36h-31.67c-.09,1.05-.09,2.09-.09,3.23,0,12.74,6.09,20.45,16.83,20.45,5.8,0,11.41-2.28,14.65-7.13l.48.29c-2.38,7.42-8.94,12.93-18.26,12.93ZM241.02,91.01l23.78-.48v-.76c0-9.51-3.52-13.89-10.08-13.89-7.61,0-12.46,5.99-13.7,15.12Z"/>
    <path class="cls-1" d="M284.01,86.16c-2.28-5.9-3.52-8.37-5.8-10.37v-.19h13.5v.19c-1.52,1.81-2.19,5.04-.29,10.08l9.61,25.3,8.94-23.59c2.19-5.9,1.24-9.89-.95-11.79v-.19h9.8v.19c-3.14,2.85-4.47,5.04-6.56,10.75l-13.51,35h-.95l-13.79-35.38Z"/>
    <path class="cls-1" d="M342.79,122.3c-12.55,0-20.92-9.7-20.92-23.3,0-15.12,10.56-24.82,21.59-24.82s18.07,9.51,17.4,18.36h-31.67c-.09,1.05-.09,2.09-.09,3.23,0,12.74,6.09,20.45,16.83,20.45,5.8,0,11.41-2.28,14.65-7.13l.48.29c-2.38,7.42-8.94,12.93-18.26,12.93ZM329.38,91.01l23.78-.48v-.76c0-9.51-3.52-13.89-10.08-13.89-7.61,0-12.46,5.99-13.7,15.12Z"/>
    <path class="cls-1" d="M370.75,120.68c1.52-2.95,2.09-6.09,2.09-11.98v-48.41c0-4.47-2.09-7.04-4.28-8.75v-.19l11.22-4.56v61.82c0,5.9.38,9.13,2.09,12.08v.19h-11.13v-.19Z"/>
    <path class="cls-1" d="M433.05,67.71l-.76.29c-5.14-12.55-11.7-16.26-18.83-16.26-8.75,0-12.84,5.33-12.84,11.79,0,9.61,8.66,13.03,17.69,17.21,9.61,4.38,19.5,9.13,19.5,22.07,0,13.98-11.41,19.5-24.44,19.5-6.47,0-13.12-1.43-18.83-3.61l-1.9-15.41.76-.29c5.71,12.08,12.36,17.4,22.25,17.4s15.03-5.99,15.03-14.08c0-10.37-7.89-14.46-16.55-18.36-9.7-4.47-19.59-8.75-19.59-20.92s9.32-17.21,21.21-17.21c5.71,0,11.22,1.24,15.41,2.85l1.9,15.03Z"/>
    <path class="cls-1" d="M468.24,122.3c-12.55,0-20.92-9.7-20.92-23.3,0-15.12,10.56-24.82,21.59-24.82s18.07,9.51,17.4,18.36h-31.67c-.09,1.05-.09,2.09-.09,3.23,0,12.74,6.09,20.45,16.83,20.45,5.8,0,11.41-2.28,14.65-7.13l.48.29c-2.38,7.42-8.94,12.93-18.26,12.93ZM454.83,91.01l23.78-.48v-.76c0-9.51-3.52-13.89-10.08-13.89-7.61,0-12.46,5.99-13.7,15.12Z"/>
    <path class="cls-1" d="M499.35,111.36v-34.05h-5.14v-.38l11.6-9.99h.48v8.65h13.32v1.71h-13.32v34.05c0,4.66,2.09,7.13,6.85,7.13,3.42,0,6.18-1.24,7.23-1.81l.19.38c-1.9,2.47-5.8,5.23-11.13,5.23-5.04,0-10.08-2.38-10.08-10.94Z"/>
    <path class="cls-1" d="M548.14,120.87v-.19c3.04-4.85,3.8-7.61,3.8-14.08v-41.09c0-6.47-.76-9.23-3.8-14.08v-.19c14.84,0,16.36-.38,23.3-.38,19.97-.1,23.3,9.13,23.3,16.17,0,7.8-4.09,14.46-12.74,17.02,11.79,1.52,16.17,9.32,16.17,17.5,0,11.13-7.99,19.31-26.54,19.31h-23.49ZM573.53,83.69c10.18,0,13.6-8.37,13.6-16.07,0-9.7-5.8-14.84-16.64-14.84-4.18,0-7.8.29-10.75.67v30.24h13.79ZM589.7,101.95c0-9.61-4.95-16.36-15.31-16.36h-14.65v32.53c3.04.48,6.94.86,11.13.86,12.93,0,18.83-6.75,18.83-17.02Z"/>
    <path class="cls-1" d="M609.01,120.68c1.52-4.18,2.09-7.89,2.09-14.46v-17.69c0-4.66-2-7.51-4.18-9.42v-.38l11.13-5.04v32.43c0,6.56.19,10.37,2.09,14.55v.19h-11.13v-.19ZM614.24,62.95c-2.57,0-4.75-2.09-4.75-4.75s2.19-4.76,4.75-4.76,4.66,2.19,4.66,4.76-2.09,4.75-4.66,4.75Z"/>
    <path class="cls-1" d="M629.94,98.33c.09-13.12,10.94-24.16,23.87-24.16s23.87,11.03,23.87,24.16-10.84,23.97-23.87,23.97-23.87-10.84-23.87-23.97ZM669.69,98.33c0-11.98-5.23-22.35-15.88-22.35s-15.88,10.37-15.88,22.35,5.14,22.16,15.88,22.16,15.88-10.27,15.88-22.16Z"/>
  </g>
  <g>
    <path class="cls-1" d="M48.9,47.52v.5c4.42,2.49,9.3,3.62,14.27,4.04.43,4.96,1.56,9.83,4.04,14.26h.5c.18-5.19.18-13.3.25-18.55v-.5s-.5,0-.5,0c-5.23.06-13.38.07-18.55.25Z"/>
    <path class="cls-1" d="M81.13,47.52v.5c4.42,2.49,9.3,3.62,14.27,4.04.43,4.96,1.56,9.83,4.03,14.26h.5c.18-5.19.18-13.3.25-18.55v-.5s-.5,0-.5,0c-5.23.06-13.38.07-18.55.25Z"/>
    <path class="cls-1" d="M131.66,66.32h.5c.18-5.19.18-13.3.25-18.55v-.5s-.5,0-.5,0c-5.23.06-13.38.07-18.55.25v.5c4.42,2.49,9.3,3.62,14.27,4.04.43,4.96,1.56,9.83,4.04,14.26Z"/>
    <path class="cls-1" d="M81.13,76.94v.5c4.42,2.49,9.3,3.62,14.27,4.04.43,4.96,1.56,9.83,4.03,14.26h.5c.18-5.19.18-13.3.25-18.55v-.5s-.5,0-.5,0c-5.23.06-13.38.07-18.55.25Z"/>
    <path class="cls-1" d="M113.36,76.94v.5c4.42,2.49,9.3,3.62,14.27,4.04.43,4.96,1.56,9.83,4.04,14.26h.5c.18-5.19.18-13.3.25-18.55v-.5s-.5,0-.5,0c-5.23.06-13.38.07-18.55.25Z"/>
    <path class="cls-1" d="M113.36,106.36v.5c4.42,2.49,9.3,3.62,14.27,4.04.43,4.96,1.56,9.83,4.04,14.26h.5c.18-5.19.18-13.3.25-18.55v-.5s-.5,0-.5,0c-5.23.06-13.38.07-18.55.25Z"/>
  </g>
</svg>