<svg width="48" height="48" viewBox="0 0 54 64" fill="none" xmlns="http://www.w3.org/2000/svg">
  <path d="M35.7812 32.9975L35.3504 32.9975C33.2082 36.807 32.2303 41.0144 31.868 45.2896C27.597 45.6577 23.3974 46.6376 19.5818 48.7663L19.5818 49.1971C24.0566 49.3536 31.0386 49.3532 35.5656 49.4121L36 49.4159L35.996 48.9813C35.9419 44.4714 35.9385 37.4536 35.7812 32.9975Z" fill="#55BEC6"></path>
  <path opacity="0.9" d="M4.21878 33.8342L4.64958 33.8342C6.7918 30.0247 7.76973 25.8172 8.13195 21.542C12.4029 21.1739 16.6026 20.1941 20.4182 18.0653L20.4182 17.6345C15.9434 17.478 8.96137 17.4784 4.43438 17.4196L4 17.4158L4.00399 17.8504C4.05805 22.3603 4.06144 29.3781 4.21878 33.8342Z" fill="#55BEC6"></path>
  <path opacity="0.6" d="M4.319 33.0977L4.74979 33.0977C6.89202 36.9071 7.86995 41.1146 8.23217 45.3898C12.5032 45.7579 16.7028 46.7377 20.5184 48.8665L20.5184 49.2973C16.0436 49.4538 9.06159 49.4534 4.5346 49.5123L4.10022 49.5161L4.10421 49.0815C4.15827 44.5715 4.16166 37.5538 4.319 33.0977Z" fill="#55BEC6"></path>
  <path opacity="0.6" d="M19.5815 17.6347L19.5815 18.0655C23.391 20.2077 27.5985 21.1856 31.8737 21.5479C32.2418 25.8189 33.2216 30.0185 35.3504 33.8341L35.7812 33.8341C35.9377 29.3593 35.9373 22.3773 35.9962 17.8503L35.9999 17.4159L35.5653 17.4199C31.0554 17.474 24.0376 17.4774 19.5815 17.6347Z" fill="#55BEC6"></path>
</svg>
