<svg width="48" height="48" viewBox="0 0 64 64" fill="none" xmlns="http://www.w3.org/2000/svg">
  <path d="M33.355 17L32.9576 17.3974C34.4954 22.8869 37.4742 27.6696 41.0832 31.9468C37.4835 36.2257 34.5136 41.0029 32.9578 46.4856L33.3552 46.883C37.6269 42.9 44.0663 36.4598 48.296 32.3387L48.7001 31.9416L48.2956 31.5444C44.0861 27.4346 37.6102 20.9649 33.355 17Z" fill="#55BEC6"></path>
  <path opacity="0.6" d="M17.8762 17L17.4789 17.3974C19.0167 22.8869 21.9954 27.6696 25.6045 31.9468C22.0047 36.2257 19.0349 41.0029 17.4791 46.4856L17.8764 46.883C22.1481 42.9 28.5875 36.4598 32.8172 32.3387L33.2214 31.9416L32.8169 31.5444C28.6073 27.4346 22.1314 20.9649 17.8762 17Z" fill="#55BEC6"></path>
  <path opacity="0.2" d="M2.39735 17L2 17.3974C3.53777 22.8869 6.51651 27.6696 10.1256 31.9468C6.52582 36.2257 3.55601 41.0029 2.0002 46.4856L2.39755 46.883C6.66921 42.9 13.1086 36.4598 17.3384 32.3387L17.7425 31.9416L17.338 31.5444C13.1284 27.4346 6.65252 20.9649 2.39735 17Z" fill="#55BEC6"></path>
</svg>
