<svg width="48" height="48" viewBox="0 0 64 64" fill="none" xmlns="http://www.w3.org/2000/svg">
  <path d="M43.5509 25.5502V25.2374C40.7849 23.6819 37.73 22.9719 34.6258 22.7088C34.3585 19.6077 33.6471 16.5584 32.1014 13.788H31.7886C31.675 17.0371 31.6753 22.1066 31.6325 25.3936L31.6298 25.709L31.9453 25.7061C35.2199 25.6669 40.3154 25.6644 43.5509 25.5502Z" fill="#55BEC6"></path>
  <path opacity="0.9" d="M2.4491 44.4499V44.7627C5.21511 46.3182 8.27009 47.0282 11.3743 47.2912C11.6415 50.3923 12.353 53.4417 13.8986 56.2121H14.2114C14.3251 52.963 14.3248 47.8935 14.3675 44.6065L14.3675 44.2911L14.0547 44.294C10.7801 44.3332 5.68462 44.3357 2.4491 44.4499Z" fill="#55BEC6"></path>
  <path opacity="0.6" d="M43.5509 44.4499V44.7627C40.7849 46.3182 37.73 47.0282 34.6258 47.2912C34.3585 50.3923 33.6471 53.4417 32.1014 56.2121H31.7886C31.675 52.963 31.6753 47.8935 31.6325 44.6065L31.6298 44.2911L31.9453 44.294C35.2199 44.3332 40.3154 44.3357 43.5509 44.4499Z" fill="#55BEC6"></path>
  <path opacity="0.6" d="M14.2114 13.7879H13.8986C12.3432 16.5539 11.6331 19.6089 11.3701 22.713C8.26899 22.9803 5.21966 23.6918 2.44922 25.2374V25.5502C5.69833 25.6639 10.7679 25.6636 14.0549 25.7063L14.3703 25.7091L14.3674 25.3935C14.3281 22.1189 14.3256 17.0234 14.2114 13.7879Z" fill="#55BEC6"></path>
</svg>
