<svg width="48" height="48" viewBox="0 0 64 64" fill="none" xmlns="http://www.w3.org/2000/svg">
  <path d="M20.4452 15.7159L20.4452 16.2779C25.4142 19.0722 30.9024 20.3477 36.4789 20.8202C36.959 26.3913 38.2371 31.8693 41.0138 36.8462L41.5758 36.8462C41.7799 31.0093 41.7793 21.9021 41.8562 15.9972L41.8611 15.4306L41.2943 15.4358C35.4115 15.5063 26.2576 15.5107 20.4452 15.7159Z" fill="#55BEC6"></path>
  <path opacity="0.6" d="M14.8888 28.4563V28.8272C18.1684 30.6715 21.7907 31.5134 25.4713 31.8252C25.7882 35.5022 26.6317 39.1178 28.4644 42.4026L28.8353 42.4026C28.9701 38.5502 28.9697 32.5393 29.0204 28.6419L29.0237 28.268L28.6495 28.268C24.7668 28.318 18.7251 28.3209 14.8888 28.4563Z" fill="#55BEC6"></path>
  <path opacity="0.2" d="M6.16458 39.356L6.16458 39.6852C9.0753 41.322 12.2901 42.0692 15.5567 42.346C15.8379 45.6093 16.5866 48.8182 18.2131 51.7336L18.5423 51.7336C18.6619 48.3145 18.6616 42.9797 18.7066 39.5208L18.7095 39.1889L18.3774 39.1919C14.9315 39.2332 9.56937 39.2358 6.16458 39.356Z" fill="#55BEC6"></path>
</svg>
