<svg width="48" height="48" viewBox="0 0 64 64" fill="none" xmlns="http://www.w3.org/2000/svg">
  <path opacity="0.9" d="M4.83288 18.6986L4.43842 19.093C5.96503 24.5426 8.92213 29.2906 12.505 33.5369C8.93137 37.7846 5.98314 42.5272 4.43862 47.9701L4.83309 48.3646C9.07372 44.4105 15.4664 38.0171 19.6654 33.9259L20.0666 33.5316L19.665 33.1374C15.486 29.0574 9.05715 22.6347 4.83288 18.6986Z" fill="#55BEC6"></path>
  <path opacity="0.9" d="M35.2302 18.6986L35.6247 19.093C34.0981 24.5426 31.141 29.2906 27.5581 33.5369C31.1317 37.7846 34.08 42.5272 35.6245 47.9701L35.23 48.3646C30.9894 44.4105 24.5967 38.0171 20.3977 33.9259L19.9965 33.5316L20.3981 33.1374C24.5771 29.0574 31.006 22.6347 35.2302 18.6986Z" fill="#96D5DA"></path>
</svg>
