<svg width="48" height="48" viewBox="0 0 54 64" fill="none" xmlns="http://www.w3.org/2000/svg">
  <path d="M40.6286 41.5531L40.8962 41.2854C39.8605 37.588 37.8541 34.3666 35.4233 31.4857C37.8479 28.6037 39.8482 25.386 40.8961 21.6931L40.6285 21.4255C37.7513 24.1082 33.4141 28.446 30.5651 31.2217L30.2929 31.4892L30.5654 31.7567C33.4007 34.5249 37.7625 38.8825 40.6286 41.5531Z" fill="#55BEC6"></path>
  <path opacity="0.9" d="M3.37141 22.557L3.10378 22.8246C4.13954 26.5221 6.14586 29.7434 8.57675 32.6244C6.15213 35.5064 4.15183 38.7241 3.10392 42.4169L3.37155 42.6846C6.24871 40.0019 10.5859 35.6641 13.4349 32.8883L13.7071 32.6208L13.4346 32.3533C10.5993 29.5852 6.23746 25.2276 3.37141 22.557Z" fill="#55BEC6"></path>
  <path opacity="0.6" d="M31.4981 50.6837L31.2304 50.9513C27.533 49.9156 24.3116 47.9093 21.4307 45.4784C18.5487 47.903 15.331 49.9033 11.6381 50.9512L11.3705 50.6836C14.0532 47.8064 18.3909 43.4692 21.1667 40.6202L21.4342 40.348L21.7017 40.6205C24.4699 43.4558 28.8275 47.8176 31.4981 50.6837Z" fill="#55BEC6"></path>
  <path opacity="0.6" d="M32.6295 12.2164L32.3619 11.9488C28.6645 12.9846 25.4431 14.9909 22.5621 17.4218C19.6801 14.9971 16.4624 12.9968 12.7696 11.9489L12.5019 12.2166C15.1847 15.0937 19.5224 19.431 22.2982 22.2799L22.5657 22.5521L22.8332 22.2796C25.6013 19.4443 29.959 15.0825 32.6295 12.2164Z" fill="#55BEC6"></path>
</svg>
