<svg xmlns="http://www.w3.org/2000/svg" width="34" height="34" viewBox="0 0 34 34" fill="none">
<path d="M34 1.7C34 0.761116 33.2389 0 32.3 0H1.7C0.761116 0 0 0.761116 0 1.7V32.3C0 33.2389 0.761116 34 1.7 34H32.3C33.2389 34 34 33.2389 34 32.3V1.7ZM10.0822 28.8922H5.10515V12.8719H10.0822V28.8922ZM7.59367 10.6865C6.0026 10.6865 4.71185 9.39578 4.71185 7.80472C4.71185 6.21366 6.0026 4.9229 7.59367 4.9229C9.18473 4.9229 10.4755 6.21366 10.4755 7.80472C10.4755 9.39578 9.18473 10.6865 7.59367 10.6865ZM28.8978 28.8922H23.9208V21.0991C23.9208 19.2393 23.8841 16.8459 21.3255 16.8459C18.7291 16.8459 18.3303 18.8741 18.3303 20.9642V28.8922H13.3532V12.8719H18.1287V15.0601H18.196C18.8604 13.8016 20.4842 12.4746 22.9009 12.4746C27.9306 12.4746 28.8978 15.7854 28.8978 20.0898V28.8922Z" fill="#0077B5"/>
</svg>
