<svg xmlns="http://www.w3.org/2000/svg" viewBox="0 0 268 65" width="280">
  <g transform="translate(25 19)">
    <path d="M 0 27 L 0 0 L 218 0 L 218 27 Z" fill="transparent"></path>
    <path d="M 44.547 25.522 L 44.547 25.457 C 45.601 23.786 45.865 22.835 45.865 20.606 L 45.865 6.456 C 45.865 4.227 45.601 3.276 44.547 1.605 L 44.547 1.54 L 49.89 1.54 L 49.89 1.605 C 48.801 3.276 48.572 4.192 48.572 6.456 L 48.572 25.033 L 54.539 24.802 C 56.98 24.671 58.925 22.542 60.738 19.559 L 61.001 19.659 L 59.518 25.522 Z" fill="currentColor"></path>
    <path d="M 71.257 26.015 C 66.906 26.015 64.004 22.673 64.004 17.989 C 64.004 12.78 67.665 9.439 71.489 9.439 C 75.313 9.439 77.754 12.715 77.522 15.763 L 66.542 15.763 C 66.51 16.125 66.51 16.483 66.51 16.876 C 66.51 21.265 68.622 23.92 72.345 23.92 C 74.356 23.92 76.301 23.135 77.424 21.464 L 77.591 21.564 C 76.766 24.12 74.491 26.018 71.26 26.018 Z M 66.607 15.233 L 74.852 15.067 L 74.852 14.806 C 74.852 11.53 73.632 10.021 71.357 10.021 C 68.719 10.021 67.037 12.084 66.607 15.229 Z" fill="currentColor"></path>
    <path d="M 81.512 13.563 C 80.722 11.53 80.292 10.679 79.501 9.99 L 79.501 9.925 L 84.182 9.925 L 84.182 9.99 C 83.655 10.614 83.422 11.726 84.081 13.463 L 87.413 22.178 L 90.512 14.052 C 91.272 12.019 90.942 10.645 90.183 9.99 L 90.183 9.925 L 93.581 9.925 L 93.581 9.99 C 92.492 10.972 92.031 11.726 91.306 13.693 L 86.622 25.75 L 86.293 25.75 Z" fill="currentColor"></path>
    <path d="M 101.891 26.015 C 97.54 26.015 94.638 22.673 94.638 17.989 C 94.638 12.78 98.299 9.439 102.123 9.439 C 105.947 9.439 108.388 12.715 108.156 15.763 L 97.176 15.763 C 97.145 16.125 97.145 16.483 97.145 16.876 C 97.145 21.265 99.256 23.92 102.979 23.92 C 104.99 23.92 106.935 23.135 108.059 21.464 L 108.225 21.564 C 107.4 24.12 105.126 26.018 101.894 26.018 Z M 97.242 15.233 L 105.486 15.067 L 105.486 14.806 C 105.486 11.53 104.266 10.021 101.991 10.021 C 99.353 10.021 97.672 12.084 97.242 15.229 Z" fill="currentColor"></path>
    <path d="M 111.588 25.457 C 112.115 24.441 112.313 23.359 112.313 21.33 L 112.313 4.65 C 112.313 3.111 111.588 2.225 110.829 1.636 L 110.829 1.571 L 114.719 0 L 114.719 21.295 C 114.719 23.328 114.85 24.441 115.443 25.457 L 115.443 25.522 L 111.585 25.522 L 111.585 25.457 Z" fill="currentColor"></path>
    <path d="M 133.184 7.206 L 132.92 7.306 C 131.138 2.983 128.864 1.705 126.392 1.705 C 123.358 1.705 121.94 3.541 121.94 5.766 C 121.94 9.077 124.943 10.255 128.074 11.695 C 131.405 13.203 134.834 14.84 134.834 19.297 C 134.834 24.113 130.878 26.014 126.361 26.014 C 124.118 26.014 121.812 25.522 119.833 24.771 L 119.174 19.462 L 119.437 19.363 C 121.417 23.524 123.723 25.356 127.151 25.356 C 130.58 25.356 132.362 23.293 132.362 20.506 C 132.362 16.934 129.627 15.525 126.624 14.182 C 123.261 12.642 119.833 11.168 119.833 6.975 C 119.833 2.783 123.064 1.047 127.186 1.047 C 129.166 1.047 131.076 1.474 132.529 2.029 L 133.187 7.206 Z" fill="currentColor"></path>
    <path d="M 145.388 26.015 C 141.037 26.015 138.135 22.673 138.135 17.989 C 138.135 12.78 141.796 9.439 145.62 9.439 C 149.444 9.439 151.885 12.715 151.652 15.763 L 140.672 15.763 C 140.641 16.125 140.641 16.483 140.641 16.876 C 140.641 21.265 142.753 23.92 146.476 23.92 C 148.487 23.92 150.432 23.135 151.555 21.464 L 151.722 21.564 C 150.897 24.12 148.622 26.018 145.391 26.018 Z M 140.738 15.233 L 148.983 15.067 L 148.983 14.806 C 148.983 11.53 147.762 10.021 145.488 10.021 C 142.85 10.021 141.168 12.084 140.738 15.229 Z" fill="currentColor"></path>
    <path d="M 156.17 22.246 L 156.17 10.517 L 154.388 10.517 L 154.388 10.386 L 158.41 6.944 L 158.576 6.944 L 158.576 9.924 L 163.194 9.924 L 163.194 10.513 L 158.576 10.513 L 158.576 22.242 C 158.576 23.848 159.301 24.699 160.951 24.699 C 162.137 24.699 163.094 24.272 163.458 24.075 L 163.523 24.206 C 162.865 25.057 161.513 26.008 159.665 26.008 C 157.917 26.008 156.17 25.188 156.17 22.239 Z" fill="currentColor"></path>
    <path d="M 173.085 25.522 L 173.085 25.456 C 174.139 23.786 174.403 22.835 174.403 20.606 L 174.403 6.455 C 174.403 4.226 174.139 3.276 173.085 1.605 L 173.085 1.539 C 178.23 1.539 178.757 1.408 181.163 1.408 C 188.087 1.374 189.241 4.553 189.241 6.979 C 189.241 9.666 187.823 11.96 184.824 12.842 C 188.912 13.365 190.43 16.052 190.43 18.87 C 190.43 22.704 187.66 25.522 181.229 25.522 Z M 181.891 12.711 C 185.421 12.711 186.606 9.827 186.606 7.175 C 186.606 3.834 184.596 2.063 180.837 2.063 C 179.388 2.063 178.133 2.163 177.11 2.294 L 177.11 12.711 Z M 187.497 19.001 C 187.497 15.69 185.781 13.365 182.189 13.365 L 177.11 13.365 L 177.11 24.571 C 178.164 24.736 179.516 24.867 180.969 24.867 C 185.452 24.867 187.497 22.542 187.497 19.004 Z" fill="currentColor"></path>
    <path d="M 194.192 25.456 C 194.719 24.017 194.917 22.739 194.917 20.475 L 194.917 14.382 C 194.917 12.776 194.223 11.795 193.468 11.137 L 193.468 11.006 L 197.326 9.27 L 197.326 20.441 C 197.326 22.701 197.392 24.013 198.051 25.453 L 198.051 25.518 L 194.192 25.518 L 194.192 25.453 Z M 196.005 5.57 C 195.114 5.57 194.359 4.85 194.359 3.934 C 194.359 3.017 195.118 2.294 196.005 2.294 C 196.893 2.294 197.621 3.048 197.621 3.934 C 197.621 4.819 196.896 5.57 196.005 5.57 Z" fill="currentColor"></path>
    <path d="M 201.445 17.758 C 201.476 13.239 205.238 9.436 209.721 9.436 C 214.204 9.436 217.996 13.235 217.996 17.758 C 217.996 22.281 214.238 26.015 209.721 26.015 C 205.203 26.015 201.445 22.281 201.445 17.758 Z M 215.23 17.758 C 215.23 13.631 213.417 10.059 209.724 10.059 C 206.032 10.059 204.219 13.631 204.219 17.758 C 204.219 21.885 206.001 25.392 209.724 25.392 C 213.448 25.392 215.23 21.854 215.23 17.758 Z" fill="currentColor"></path>
    <path d="M 0 0.255 C 1.792 0.193 4.618 0.189 6.431 0.169 L 6.605 0.169 L 6.605 0.341 C 6.58 2.149 6.58 4.943 6.518 6.731 L 6.345 6.731 C 5.242 4.764 4.899 2.546 4.871 0.341 L 6.431 1.891 C 4.209 1.867 1.973 1.529 0 0.427 Z" fill="currentColor"></path>
    <path d="M 11.174 0.255 C 12.966 0.193 15.792 0.189 17.605 0.169 L 17.779 0.169 L 17.779 0.341 C 17.754 2.149 17.754 4.943 17.692 6.731 L 17.519 6.731 C 16.416 4.767 16.073 2.549 16.045 0.341 L 17.605 1.891 C 15.383 1.867 13.147 1.529 11.174 0.427 Z" fill="currentColor"></path>
    <path d="M 22.348 0.255 C 24.141 0.193 26.966 0.189 28.779 0.169 L 28.953 0.169 L 28.953 0.341 C 28.928 2.149 28.928 4.943 28.866 6.731 L 28.693 6.731 C 27.59 4.767 27.247 2.549 27.219 0.341 L 28.779 1.891 C 26.557 1.867 24.321 1.529 22.348 0.427 Z" fill="currentColor"></path>
    <path d="M 11.174 10.39 C 12.966 10.328 15.792 10.324 17.605 10.304 L 17.779 10.304 L 17.779 10.476 C 17.754 12.284 17.754 15.078 17.692 16.866 L 17.519 16.866 C 16.416 14.903 16.073 12.684 16.045 10.476 L 17.605 12.026 C 15.383 12.002 13.147 11.664 11.174 10.562 Z" fill="currentColor"></path>
    <path d="M 22.348 10.39 C 24.141 10.328 26.966 10.324 28.779 10.304 L 28.953 10.304 L 28.953 10.476 C 28.928 12.284 28.928 15.078 28.866 16.866 L 28.693 16.866 C 27.59 14.903 27.247 12.684 27.219 10.476 L 28.779 12.026 C 26.557 12.002 24.321 11.664 22.348 10.562 Z" fill="currentColor"></path>
    <path d="M 22.348 20.524 C 24.141 20.462 26.966 20.458 28.779 20.438 L 28.953 20.438 L 28.953 20.61 C 28.928 22.419 28.928 25.212 28.866 27 L 28.693 27 C 27.59 25.036 27.247 22.818 27.219 20.61 L 28.779 22.16 C 26.557 22.136 24.321 21.798 22.348 20.696 Z" fill="currentColor"></path>
  </g>
</svg>
