<svg width="443" height="413" viewBox="0 0 443 413" fill="none" id="svg90019552_1966" xmlns="http://www.w3.org/2000/svg">
<path opacity="0.4" d="M0 1.32559C27.3914 0.371164 70.5713 0.318141 98.2806 0H100.93V2.65117C100.559 30.4885 100.559 73.4905 99.6052 101.01H96.9561C80.108 70.7863 74.8628 36.6392 74.439 2.65117L98.2806 26.5117C64.3195 26.1406 30.1465 20.9443 0 3.97676V1.32559Z" fill="#55BEC6" fill-opacity="0.11"></path>
<path opacity="0.66" d="M170.759 1.32559C198.15 0.371164 241.33 0.318141 269.04 0H271.689V2.65117C271.318 30.4885 271.318 73.4905 270.364 101.01H267.715C250.867 70.7863 245.622 36.6392 245.198 2.65117L269.04 26.5117C235.078 26.1406 200.905 20.9443 170.759 3.97676V1.32559Z" fill="#55BEC6" fill-opacity="0.11"></path>
<path d="M341.518 1.32559C368.909 0.371164 412.089 0.318141 439.798 0H442.447V2.65117C442.077 30.4885 442.077 73.4905 441.123 101.01H438.474C421.626 70.7863 416.381 36.6392 415.957 2.65117L439.798 26.5117C405.837 26.1406 371.664 20.9443 341.518 3.97676V1.32559Z" fill="#55BEC6" fill-opacity="0.11"></path>
<path opacity="0.4" d="M170.759 157.321C198.15 156.366 241.33 156.313 269.04 155.995H271.689V158.646C271.318 186.484 271.318 229.486 270.364 257.005H267.715C250.867 226.781 245.622 192.634 245.198 158.646L269.04 182.507C235.078 182.136 200.905 176.939 170.759 159.972V157.321Z" fill="#55BEC6" fill-opacity="0.11"></path>
<path opacity="0.66" d="M341.518 157.321C368.909 156.366 412.089 156.313 439.798 155.995H442.447V158.646C442.077 186.484 442.077 229.486 441.123 257.005H438.474C421.626 226.781 416.381 192.634 415.957 158.646L439.798 182.507C405.837 182.136 371.664 176.939 341.518 159.972V157.321Z" fill="#55BEC6" fill-opacity="0.11"></path>
<path opacity="0.4" d="M341.518 313.316C368.909 312.361 412.089 312.308 439.798 311.99H442.447V314.641C442.077 342.479 442.077 385.481 441.123 413H438.474C421.626 382.777 416.381 348.629 415.957 314.641L439.798 338.502C405.837 338.131 371.664 332.935 341.518 315.967V313.316Z" fill="#55BEC6" fill-opacity="0.11"></path>
</svg>
