<svg width="387" height="387" viewBox="0 0 387 387" fill="none" xmlns="http://www.w3.org/2000/svg">
  <g opacity="1">
    <path d="M304.309 250.276L305.903 248.682C299.736 226.669 287.791 207.49 273.318 190.337C287.754 173.179 299.663 154.022 305.902 132.035L304.309 130.442C287.179 146.414 261.356 172.24 244.395 188.766L242.774 190.358L244.396 191.951C261.277 208.432 287.246 234.376 304.309 250.276Z" fill="black"/>
    <path opacity="0.9" d="M82.4911 137.18L80.8977 138.774C87.0643 160.787 99.0093 179.966 113.482 197.119C99.0467 214.277 87.1375 233.434 80.8985 255.421L82.4919 257.014C99.6217 241.042 125.444 215.216 142.406 198.69L144.027 197.097L142.405 195.505C125.524 179.024 99.5547 153.08 82.4911 137.18Z" fill="black"/>
    <path opacity="0.6" d="M249.949 304.638L248.356 306.231C226.342 300.064 207.163 288.119 190.011 273.647C172.852 288.082 153.695 299.991 131.709 306.23L130.115 304.637C146.087 287.507 171.913 261.684 188.439 244.723L190.032 243.102L191.624 244.724C208.105 261.605 234.049 287.574 249.949 304.638Z" fill="black"/>
    <path opacity="0.6" d="M256.685 75.6147L255.092 74.0213C233.079 80.1879 213.899 92.1329 196.747 106.606C179.589 92.1702 160.431 80.2611 138.445 74.0221L136.852 75.6155C152.824 92.7452 178.649 118.568 195.176 135.53L196.768 137.15L198.361 135.528C214.842 118.647 240.786 92.6783 256.685 75.6147Z" fill="black"/>
  </g>
</svg>
